<?xml version="1.0" encoding="UTF-8"?>
<!-- Generator: visioncortex VTracer 0.6.1 -->
<svg version="1.1" xmlns="http://www.w3.org/2000/svg" width="1280" height="1278">
<path d="M0 0 C422.4 0 844.8 0 1280 0 C1280 421.74 1280 843.48 1280 1278 C857.6 1278 435.2 1278 0 1278 C0 856.26 0 434.52 0 0 Z " fill="#FBFDFD" transform="translate(0,0)"/>
<path d="M0 0 C4.98053984 0.00772367 9.96106511 0.00051635 14.94160581 -0.0041585 C23.29848373 -0.00958028 31.6552815 -0.00251998 40.01214719 0.01186323 C49.60011736 0.02817736 59.18789591 0.02289557 68.77586144 0.00638402 C77.08584903 -0.00734038 85.39577979 -0.00909748 93.70577508 -0.00129998 C98.63476338 0.00331771 103.5636624 0.00416834 108.49264455 -0.00590944 C162.13811645 -0.10059397 162.13811645 -0.10059397 185.36834836 7.40297651 C186.7324862 7.80553091 188.097094 8.20649522 189.46209836 8.60610151 C219.80808277 17.78894768 245.6462209 34.52813444 267.99334836 56.71547651 C269.11265744 57.82632612 269.11265744 57.82632612 270.25457883 58.95961714 C274.73866384 63.50370691 278.66533547 68.20867767 282.36834836 73.40297651 C283.19786945 74.52106131 284.02854664 75.63828958 284.86053586 76.75453901 C290.65102588 84.66064724 295.73704702 92.7642676 300.36834836 101.40297651 C300.69544797 101.99739546 301.02254758 102.5918144 301.3595593 103.20424604 C317.0807796 131.90889365 322.52431433 163.18295574 322.51361203 195.57973433 C322.51660908 197.39936087 322.52001286 199.21898679 322.52378964 201.03861189 C322.53257815 205.95410358 322.53496557 210.86957783 322.53560543 215.78507662 C322.53631884 218.86358077 322.53845866 221.94208056 322.54110265 225.02058363 C322.55033892 235.78167706 322.55443968 246.54275815 322.55365109 257.30385542 C322.55305072 267.30069629 322.56359914 277.29748313 322.57939476 287.29431033 C322.5925123 295.90616283 322.59783323 304.51799776 322.59719568 313.12986016 C322.59694194 318.26046147 322.59972435 323.3910147 322.61037374 328.52160597 C322.62012599 333.35127345 322.62008555 338.18084759 322.6128571 343.01051855 C322.61182007 344.77159148 322.61412097 346.53267044 322.62021756 348.29373312 C322.65439703 358.86066766 322.04154709 368.96042936 320.36834836 379.40297651 C320.10415723 381.22572394 319.84088928 383.0486059 319.57928586 384.87172651 C315.47142873 410.51206012 305.88372712 436.41814768 290.36834836 457.40297651 C289.47714041 458.65256095 288.58655703 459.90259099 287.69647336 461.15297651 C266.71156086 490.2511596 238.70847222 512.95963267 205.36834836 526.40297651 C204.72865109 526.6646562 204.08895383 526.92633589 203.4298718 527.19594526 C180.55843347 536.39589085 156.96014619 539.55593037 132.51068234 539.54824018 C130.60577954 539.55123623 128.70087734 539.55463979 126.79597592 539.5584178 C121.64269517 539.5672184 116.48943104 539.5695943 111.33614349 539.57023358 C108.10871308 539.57094653 104.88128684 539.57308551 101.65385747 539.5757308 C90.37175472 539.58497246 79.08966375 539.58906732 67.80755734 539.58827925 C57.32851453 539.58767935 46.84952335 539.59821686 36.37049359 539.61402291 C27.34419617 539.62714741 18.31791551 539.63246106 9.29160863 539.63182384 C3.91388979 539.63157021 -1.46378317 539.63434569 -6.84149241 539.64500189 C-11.90671413 539.65476541 -16.97184688 539.65470617 -22.03707194 539.64748526 C-23.88276941 539.64644946 -25.72847267 539.64874152 -27.57416034 539.65484571 C-43.29680443 539.70342343 -58.43287616 538.74260032 -73.63165164 534.40297651 C-74.7157532 534.11551558 -75.79985476 533.82805464 -76.91680789 533.53188276 C-125.31585026 520.38174837 -167.78946198 488.46360638 -192.94415164 444.96547651 C-197.96746061 436.05613573 -202.16484732 427.01970575 -205.63165164 417.40297651 C-206.03722293 416.28729292 -206.03722293 416.28729292 -206.45098758 415.14907026 C-209.96521337 405.36387619 -212.73990379 395.64363821 -214.63165164 385.40297651 C-214.82501101 384.43875776 -215.01837039 383.47453901 -215.21758914 382.48110151 C-217.61379861 370.18750512 -217.78110728 357.97976223 -217.77691531 345.50160933 C-217.77991249 343.71153904 -217.7833163 341.9214694 -217.78709292 340.13140059 C-217.79588007 335.29648478 -217.7982688 330.4615867 -217.79890871 325.62666368 C-217.7996222 322.59841242 -217.80176216 319.57016558 -217.80440593 316.54191542 C-217.81364176 305.95588602 -217.81774301 295.36986918 -217.81695437 284.78383589 C-217.81635401 274.95058937 -217.82690226 265.11739777 -217.84269804 255.28416514 C-217.85581682 246.81243883 -217.86113646 238.34073038 -217.86049896 229.868994 C-217.86024526 224.8222294 -217.86302565 219.77551368 -217.87367702 214.72875929 C-217.88343138 209.97788579 -217.88338742 205.22710719 -217.87616038 200.47623014 C-217.87512361 198.74418323 -217.87742268 197.01213016 -217.88352084 195.28009367 C-217.91802374 184.79142491 -217.28748314 174.76881492 -215.63165164 164.40297651 C-215.36755341 162.58021562 -215.10430408 160.75733112 -214.84258914 158.93422651 C-207.30515144 111.8872113 -179.91872699 66.36675197 -141.21563601 38.2977519 C-139.36388414 36.985028 -137.50073005 35.69085927 -135.63165164 34.40297651 C-134.32647586 33.4787187 -134.32647586 33.4787187 -132.99493289 32.53578901 C-117.18941068 21.8969673 -99.78986618 13.98106459 -81.63165164 8.40297651 C-80.17586273 7.92789913 -78.72013208 7.45264317 -77.26446414 6.97719526 C-52.24974231 -0.87947234 -25.91375197 -0.05294708 0 0 Z " fill="#6D6D6D" transform="translate(586.6316516399384,367.59702348709106)"/>
<path d="M0 0 C3.92645182 0.00457581 7.85288671 -0.00248436 11.77933502 -0.00795984 C19.44713522 -0.01680142 27.11489601 -0.01495536 34.78269768 -0.00913456 C41.0206751 -0.00459731 47.25864157 -0.00401404 53.49662018 -0.00618219 C54.38820139 -0.00648866 55.2797826 -0.00679513 56.19838142 -0.00711088 C58.01023865 -0.0077504 59.82209587 -0.00839883 61.63395309 -0.00905606 C78.57954868 -0.01474402 95.52512255 -0.00822564 112.47071457 0.00254467 C126.97577991 0.01147878 141.48081323 0.0099263 155.98587799 0.00070715 C172.87544023 -0.01002269 189.76498348 -0.01419484 206.65454865 -0.00806832 C208.45932769 -0.0074313 210.26410675 -0.00680256 212.0688858 -0.00618219 C213.4004795 -0.00571937 213.4004795 -0.00571937 214.75897408 -0.00524719 C220.98142329 -0.00352838 227.20386035 -0.0064177 233.42630768 -0.0111413 C241.0208798 -0.0167804 248.61541064 -0.01517053 256.2099781 -0.00457981 C260.07656498 0.00063646 263.9430833 0.00280369 267.80966949 -0.00387812 C287.64716569 -0.03525141 306.86323865 0.16794671 326.15775299 5.38644934 C327.30695221 5.69284338 328.45615143 5.99923742 329.64017487 6.31491613 C378.76205167 19.83573323 419.61552259 52.22348198 444.72855377 96.40402746 C445.25038239 97.32345129 445.25038239 97.32345129 445.78275299 98.26144934 C446.12934967 98.85892981 446.47594635 99.45641027 446.83304596 100.07199621 C454.88925445 114.01237764 460.05600667 128.70523014 464.09525299 144.26144934 C464.33775787 145.17273596 464.58026276 146.08402258 464.83011627 147.02292395 C469.47786573 165.86519587 469.08195451 185.2390912 469.05886137 204.50680768 C469.05636443 208.42040855 469.06544465 212.33398686 469.07289886 216.2475791 C469.08556694 223.88984623 469.08744946 231.53207811 469.0850986 239.17435398 C469.08330623 245.39509415 469.08508464 251.61582372 469.08932304 257.83656263 C469.08991823 258.72627602 469.09051342 259.6159894 469.09112665 260.5326638 C469.09233856 262.3408851 469.0935527 264.1491064 469.09476902 265.9573277 C469.10561436 282.8678173 469.10349648 299.7782869 469.09738418 316.6887776 C469.09221882 332.10698002 469.10346579 347.52511918 469.1224824 362.94330909 C469.14192679 378.8320068 469.1501052 394.72067469 469.14635915 410.60938436 C469.14445693 419.50667375 469.14683806 428.40390936 469.16107368 437.30118895 C469.17307311 444.87654759 469.1742977 452.45181935 469.16228352 460.02717938 C469.15645392 463.88037314 469.15512764 467.73340867 469.16728592 471.58659124 C469.23059718 493.13165643 469.15543223 515.11629094 462.47025299 535.82394934 C462.16321442 536.81805822 461.85617584 537.81216711 461.53983307 538.83640051 C449.00577851 578.68685414 424.43472071 612.52336857 390.78275299 637.26144934 C389.87654205 637.92789465 388.97033112 638.59433996 388.03665924 639.28098059 C352.32933752 664.84987399 312.35091549 671.76254359 269.31444979 671.65362334 C265.2761901 671.64673774 261.23796673 671.65736036 257.19971466 671.66556311 C249.31988159 671.67880285 241.44013494 671.67606671 233.56029868 671.66732518 C227.14796228 671.6605102 220.73564985 671.65964826 214.32331085 671.66289663 C213.40567288 671.66335633 212.48803491 671.66381603 211.54258972 671.66428966 C209.67759156 671.66524898 207.81259339 671.66622162 205.94759524 671.66720743 C188.51828124 671.67573274 171.08901481 671.66597232 153.65970862 671.64980634 C138.75115535 671.63640577 123.84267219 671.63873467 108.93412018 671.65256262 C91.56105492 671.66866923 74.18803121 671.67490903 56.81495953 671.66572583 C54.9573714 671.66477032 53.09978327 671.66382721 51.24219513 671.66289663 C50.3285677 671.66243381 49.41494026 671.66197098 48.47362715 671.66149413 C42.07968007 671.65891943 35.68575966 671.66324215 29.29181671 671.67033529 C21.48443855 671.67880725 13.67715069 671.67635186 5.86978269 671.66049306 C1.89733117 671.6526861 -2.07497058 671.64938671 -6.0474205 671.65944052 C-27.40970551 671.70899469 -48.4636743 671.15852487 -69.09224701 665.01144934 C-70.13542084 664.70916418 -71.17859467 664.40687902 -72.25337982 664.09543371 C-101.40706624 655.3898816 -127.45304163 638.29612828 -149.21724701 617.26144934 C-150.14021576 616.39004309 -151.06318451 615.51863684 -152.01412201 614.62082434 C-184.98664932 582.76600982 -204.4454817 536.27687859 -205.40394783 490.57309103 C-205.49960408 483.17740758 -205.50229343 475.78191592 -205.49335539 468.38578558 C-205.49086039 464.5082955 -205.49993638 460.63082828 -205.50739288 456.75334692 C-205.52006662 449.17979089 -205.52194272 441.60627044 -205.51959262 434.03270559 C-205.51780073 427.86771951 -205.51957763 421.70274412 -205.52381706 415.5377593 C-205.52441225 414.65623651 -205.52500744 413.77471372 -205.52562067 412.86647812 C-205.52683258 411.07492629 -205.52804671 409.28337445 -205.52926304 407.49182262 C-205.54011076 390.73346625 -205.53798948 373.97513006 -205.5318782 357.21677257 C-205.52671377 341.93753666 -205.53795692 326.6583646 -205.55697642 311.37914132 C-205.57642197 295.6351168 -205.58459895 279.89112237 -205.58085316 264.14708579 C-205.57895098 255.33026487 -205.5813317 246.51349824 -205.5955677 237.69668722 C-205.60756868 230.18901001 -205.6087901 222.68142047 -205.59677754 215.17374186 C-205.59094873 211.35498408 -205.58961931 207.53638594 -205.60177994 203.71763945 C-205.77218712 146.10734017 -189.01966799 95.95415476 -148.21724701 54.26144934 C-141.09633471 47.19450112 -133.55693231 40.85848539 -125.21724701 35.26144934 C-124.55901947 34.81688391 -123.90079193 34.37231848 -123.2226181 33.91428137 C-105.77730788 22.22549393 -87.44018235 13.03635943 -67.21724701 7.26144934 C-66.0128598 6.91557775 -66.0128598 6.91557775 -64.78414154 6.56271887 C-62.26773719 5.85462696 -59.74530799 5.17665077 -57.21724701 4.51144934 C-56.11691132 4.21307165 -56.11691132 4.21307165 -54.99434662 3.90866613 C-37.00939838 -0.58612473 -18.39360799 -0.03178581 0 0 Z M-0.0248642 72.54904699 C-2.28038359 73.28196521 -4.54789628 73.96461084 -6.81880951 74.64816809 C-27.33412103 81.0776529 -47.10737578 91.28212817 -63.68306732 105.00510168 C-65.02563725 106.10453911 -66.41142271 107.15076749 -67.80318451 108.18723059 C-82.16170475 118.94419509 -94.02683099 132.60400164 -104.21724701 147.26144934 C-104.9533017 148.28625402 -105.68935638 149.31105871 -106.44771576 150.36691809 C-115.42566669 163.23473558 -121.59987078 177.67685281 -127.21724701 192.26144934 C-127.66970795 193.41387121 -128.12216888 194.56629309 -128.58834076 195.75363684 C-136.36859329 217.13115313 -138.3753989 239.66733612 -138.34664154 262.22629309 C-138.3479988 264.0228531 -138.34978055 265.81941283 -138.3519516 267.61597204 C-138.35648729 272.46715119 -138.35475233 277.31830893 -138.35157251 282.16948843 C-138.34902888 287.26256124 -138.35139202 292.35563231 -138.35295868 297.4487052 C-138.35477454 305.99924563 -138.35238938 314.54977741 -138.3476181 323.10031652 C-138.34217661 332.96543684 -138.34393968 342.83053648 -138.34944451 352.6956563 C-138.35399227 361.18770127 -138.35461805 369.67974004 -138.35200584 378.17178583 C-138.35045222 383.23405626 -138.35022414 388.29631699 -138.35354233 393.35858679 C-138.35644524 398.11927644 -138.3544011 402.87993962 -138.34864807 407.64062643 C-138.34733341 409.38080187 -138.34769242 411.12097956 -138.34991074 412.86115408 C-138.3868352 444.78665728 -131.7902287 476.39501705 -116.17476654 504.52609777 C-115.2307903 506.23690428 -114.33101417 507.97185932 -113.43209076 509.70676184 C-90.52990558 552.39915798 -47.2080705 583.82836313 -1.39693451 597.65207434 C4.25251124 599.23148928 10.01329111 600.22625881 15.78275299 601.26144934 C17.38920134 601.62655123 18.99378629 602.0000815 20.59525299 602.38644934 C31.46935034 604.78904296 42.58368284 604.41019265 53.65628815 604.40671301 C55.56281347 604.40970903 57.46933819 604.41311258 59.37586212 604.41689062 C64.53320783 604.4256909 69.69053693 604.42806709 74.84788942 604.42870641 C78.07732215 604.4294193 81.30675071 604.43155818 84.5361824 604.43420362 C95.82361619 604.44344475 107.1110382 604.44754016 118.39847565 604.44675207 C128.88549085 604.446152 139.37245449 604.45669318 149.85945666 604.47249573 C158.89083395 604.48561517 167.92219448 604.49093411 176.95358121 604.49029666 C182.33518055 604.49004292 187.71673406 604.49282534 193.09832382 604.50347471 C198.16600475 604.51322979 203.23359672 604.51318462 208.30128098 604.50595808 C210.14901104 604.5049213 211.99674687 604.50722042 213.84446716 604.51331854 C229.26156385 604.56085742 243.99386896 603.29759625 259.03275299 599.63644934 C260.09485992 599.3784757 261.15696686 599.12050207 262.25125885 598.85471106 C272.51036067 596.25173559 282.15789568 592.6356256 291.78275299 588.26144934 C292.85493073 587.7780509 292.85493073 587.7780509 293.94876862 587.28488684 C308.12971089 580.79463232 320.86608212 572.30318258 332.78275299 562.26144934 C333.88282186 561.35887208 334.98309614 560.45654513 336.08353424 559.55441809 C373.37181225 528.67401656 396.25748025 483.70729465 401.30350494 435.68813086 C402.02862665 427.49973591 401.93072974 419.29740429 401.92801666 411.08469152 C401.93101371 409.26506498 401.93441749 407.44543906 401.93819427 405.62581396 C401.94698278 400.71032227 401.9493702 395.79484802 401.95001006 390.87934923 C401.95072347 387.80084508 401.95286329 384.72234529 401.95550728 381.64384222 C401.96474355 370.88274879 401.96884431 360.1216677 401.96805573 349.36057043 C401.96745535 339.36372956 401.97800377 329.36694272 401.99379939 319.37011552 C402.00691693 310.75826302 402.01223786 302.14642809 402.01160032 293.53456569 C402.01134657 288.40396438 402.01412898 283.27341115 402.02477837 278.14281988 C402.03453062 273.3131524 402.03449018 268.48357826 402.02726173 263.6539073 C402.02622471 261.89283437 402.0285256 260.13175541 402.03462219 258.37069273 C402.06880166 247.80375819 401.45595172 237.70399649 399.78275299 227.26144934 C399.51857346 225.43870023 399.25530805 223.61581793 398.99369049 221.79269934 C395.82410621 202.023285 389.30229499 183.83444354 379.78275299 166.26144934 C379.31611237 165.32945715 378.84947174 164.39746496 378.36869049 163.43723059 C357.18863198 122.0060635 317.70259754 89.8279051 273.90775299 75.01144934 C267.47501041 72.93915643 260.96147519 71.15752325 254.40775299 69.51144934 C253.64350006 69.31261145 252.87924713 69.11377356 252.09183502 68.90891027 C236.77739435 65.26841327 220.77517933 64.96056363 205.11014557 64.98679113 C203.34482359 64.98242657 201.57950349 64.97723775 199.8141861 64.97130346 C195.08448191 64.95808798 190.35485847 64.9573151 185.62513947 64.95986676 C181.64499023 64.9609487 177.66485653 64.9560222 173.68471068 64.95126134 C164.27686817 64.94022596 154.86906561 64.93969455 145.46121979 64.94577551 C135.82846743 64.95180714 126.19586143 64.93951099 116.56313401 64.91820544 C108.22694319 64.90046086 99.89079841 64.89460822 91.55458945 64.89784318 C86.60487003 64.89963621 81.65525497 64.89722233 76.70555305 64.88312864 C37.84422522 64.61220868 37.84422522 64.61220868 -0.0248642 72.54904699 Z " fill="#B6B9B8" transform="translate(507.21724700927734,302.7385506629944)"/>
<path d="M0 0 C0.09796875 0.68320312 0.1959375 1.36640625 0.296875 2.0703125 C1.53734508 10.43279186 3.0198613 18.73712017 4.59082031 27.04345703 C6.73028013 38.5342937 7.25911478 49.75035821 7.51757812 61.43164062 C7.55173828 62.61564453 7.58589844 63.79964844 7.62109375 65.01953125 C7.6461499 66.07245361 7.67120605 67.12537598 7.69702148 68.21020508 C7.9513496 71.39145835 8.3810555 74.39464763 8.92944336 77.5324707 C10.13223382 84.48053041 10.84084425 91.44380047 11.5078125 98.4609375 C11.63930202 99.82274015 11.77096885 101.18452569 11.90280151 102.54629517 C12.1762061 105.38150719 12.44636559 108.21700564 12.71435547 111.05273438 C13.05432769 114.64569644 13.4041707 118.23761935 13.75671577 121.82936668 C14.03078714 124.63630566 14.29861535 127.44381618 14.564785 130.25151443 C14.75145276 132.20682058 14.94387773 134.16157446 15.13650513 136.11630249 C15.71143281 142.29462299 16.14573753 148.46731734 16.32763672 154.67041016 C16.36283417 155.79049469 16.39803162 156.91057922 16.43429565 158.06460571 C15.90092092 161.66967318 14.80598462 162.76301618 12 165 C10.15649414 166.04907227 10.15649414 166.04907227 8.28515625 166.81640625 C7.25551758 167.25049805 7.25551758 167.25049805 6.20507812 167.69335938 C5.49802734 167.98017578 4.79097656 168.26699219 4.0625 168.5625 C-1.43703512 170.81615147 -1.43703512 170.81615147 -6.671875 173.609375 C-12.72541261 177.22524646 -20.9815537 179.16320618 -28 178 C-34.97569692 176.20798497 -41.37185621 173.71266795 -46 168 C-48.76559666 163.28918245 -50.55398759 158.46365199 -51 153 C-51.06316406 152.34257813 -51.12632812 151.68515625 -51.19140625 151.0078125 C-51.74769449 140.34861196 -49.14874024 125.27642884 -42 117 C-36.13591275 112.96844002 -28.91207218 112.92053281 -22 114 C-17.37764566 116.36639301 -14.12737994 120.29737067 -12 125 C-11.69551352 126.39309301 -11.40465777 127.78921116 -11.125 129.1875 C-10.75375 130.445625 -10.3825 131.70375 -10 133 C-7.50109273 134.28022492 -7.50109273 134.28022492 -5 135 C-5.2165625 133.47016479 -5.2165625 133.47016479 -5.4375 131.90942383 C-7.42503785 116.51696616 -7.15993161 101.17969909 -7 85.6875 C-6.94567663 80.39975942 -6.90661031 75.11215768 -6.875 69.82421875 C-6.85840332 68.64365402 -6.84180664 67.46308929 -6.82470703 66.24674988 C-6.76778371 56.43394148 -6.96591579 46.09435844 -11 37 C-18.71023751 40.17480368 -24.30147471 45.3256272 -30.51806641 50.72705078 C-38.87288498 57.903661 -48.34826772 63.1652516 -58 68.375 C-58.98915405 68.91229736 -58.98915405 68.91229736 -59.99829102 69.46044922 C-64.76196277 72 -64.76196277 72 -67 72 C-67.02340931 84.81556431 -67.04105811 97.63112334 -67.05181217 110.44670486 C-67.05697957 116.40067564 -67.06396209 122.35463153 -67.07543945 128.30859375 C-67.08650306 134.06303606 -67.09186586 139.81746264 -67.09431076 145.57191467 C-67.09653936 147.82430861 -67.10103464 150.07670145 -67.10780716 152.3290863 C-67.16405653 167.82578731 -67.16405653 167.82578731 -66.42138672 183.29882812 C-66.33167099 184.61050964 -66.24195526 185.92219116 -66.14952087 187.27362061 C-65.97210557 189.55848319 -65.75131587 191.84068267 -65.47364807 194.11553955 C-65.23908809 197.05721242 -65.13305634 199.17711235 -66 202 C-68.98650085 205.02299533 -72.29089951 206.97449608 -76 209 C-77.0725 209.763125 -78.145 210.52625 -79.25 211.3125 C-86.80986523 215.95150821 -95.30347789 216.18021391 -103.9375 216.1875 C-104.69740234 216.19974609 -105.45730469 216.21199219 -106.24023438 216.22460938 C-119.56788755 216.25875366 -131.82189299 209.962866 -141.44140625 200.83984375 C-145.27881997 196.3099644 -147.41196833 191.55188575 -147 185.5625 C-144.12643547 169.14619571 -133.23110338 152.865801 -120 143 C-115.70387836 140.4663898 -110.87360818 140.18180301 -106 141 C-100.46130409 144.65050412 -98.44418869 151.06114152 -96 157 C-94.68 157 -93.36 157 -92 157 C-91.28428455 150.96829027 -90.7626503 144.97583784 -90.46484375 138.91015625 C-90.42173065 138.06020081 -90.37861755 137.21024536 -90.334198 136.33453369 C-90.1971386 133.57739764 -90.06623813 130.82003665 -89.9375 128.0625 C-89.89297699 127.11635834 -89.84845398 126.17021667 -89.80258179 125.19540405 C-89.20412648 112.23332869 -88.80520602 99.28885661 -88.8125 86.3125 C-88.8117749 84.9932251 -88.8110498 83.6739502 -88.81030273 82.31469727 C-88.84005829 77.07471033 -88.88191228 71.88497232 -89.41162109 66.66943359 C-89.51249275 65.58857735 -89.51249275 65.58857735 -89.61540222 64.48588562 C-89.81284161 62.47154217 -90.04348024 60.46053297 -90.27612305 58.44995117 C-90 55 -90 55 -87.68188477 52.16748047 C-84.94040477 49.95183555 -82.17566625 47.9043663 -79.25 45.9375 C-78.09315187 45.15192175 -76.93693395 44.3654149 -75.78125 43.578125 C-75.16894531 43.16240234 -74.55664062 42.74667969 -73.92578125 42.31835938 C-70.50779385 39.97845928 -67.13052645 37.58105389 -63.75 35.1875 C-62.30599376 34.16666076 -60.86198329 33.1458275 -59.41796875 32.125 C-58.69270996 31.61195313 -57.96745117 31.09890625 -57.22021484 30.5703125 C-54.97679319 28.9835863 -52.73269592 27.39782124 -50.48828125 25.8125 C-49.75287109 25.29300781 -49.01746094 24.77351562 -48.25976562 24.23828125 C-46.80468612 23.21131847 -45.34896514 22.18526394 -43.89257812 21.16015625 C-40.97089746 19.10324941 -38.05637252 17.04105475 -35.16796875 14.9375 C-29.625814 10.92637669 -23.84338811 7.63594828 -17.78515625 4.48046875 C-14.90678772 3.00955035 -14.90678772 3.00955035 -12 1 C-9.84375 0.33203125 -9.84375 0.33203125 -7.5 -0.1875 C-6.7265625 -0.36667969 -5.953125 -0.54585937 -5.15625 -0.73046875 C-3 -1 -3 -1 0 0 Z " fill="#6D6D6D" transform="translate(702,531)"/>
<path d="M0 0 C2.46654772 2.46654772 2.37167173 3.51150072 2.7109375 6.92578125 C2.81937988 7.94027344 2.92782227 8.95476563 3.03955078 10 C3.15024902 11.093125 3.26094727 12.18625 3.375 13.3125 C4.39641741 22.64655951 5.74678522 31.81259994 7.64208984 41.0090332 C9.35001389 49.3523696 10.07396241 57.45602896 10.29101562 65.96875 C10.55584079 76.31540763 11.27852466 86.36613964 12.91357422 96.5847168 C13.77949072 102.09022873 14.28388725 107.49499472 14.5 113.0625 C14.82645224 121.19938988 15.94794201 129.10361712 17.24609375 137.13671875 C17.75409141 140.30116019 18.18750127 143.45848764 18.53515625 146.64453125 C18.61515869 147.37075684 18.69516113 148.09698242 18.77758789 148.84521484 C18.98547371 150.80084762 19.18071361 152.75781312 19.375 154.71484375 C20.02266036 158.1191085 21.16883823 160.10606587 23 163 C22.89523093 168.55276052 21.36782514 173.57631617 18 178 C14.94399431 180.55760133 11.55829274 182.23138112 8 184 C7.29794434 184.35771484 6.59588867 184.71542969 5.87255859 185.08398438 C-21.54643433 198.99175274 -21.54643433 198.99175274 -37 194.375 C-45.04646513 191.49328992 -51.10293221 186.99581113 -56 180 C-62.0444514 166.95005471 -61.69260594 151.57781783 -57.19921875 138.09765625 C-51.77170284 124.07804674 -51.77170284 124.07804674 -45 121 C-34.38107487 117.38956546 -27.07992685 117.50111829 -17 122 C-17.01160156 120.69546875 -17.02320313 119.3909375 -17.03515625 118.046875 C-17.13260408 102.1659235 -17.13260408 102.1659235 -16.5 96.125 C-15.92484951 90.37349505 -15.88649065 84.65001131 -15.875 78.875 C-15.87048828 77.95605957 -15.86597656 77.03711914 -15.86132812 76.09033203 C-15.87442194 70.00498246 -16.2825099 64.04227996 -17 58 C-21.68050426 60.57110872 -25.60026034 63.85184868 -29.6875 67.25 C-39.08048707 74.9413436 -48.23694797 81.37410646 -59.19140625 86.6171875 C-61.84252223 87.73517386 -61.84252223 87.73517386 -63 89 C-62.90544128 91.31516355 -62.74646473 93.62772066 -62.5625 95.9375 C-62.12343353 102.06700732 -61.88483275 108.16703244 -61.875 114.3125 C-61.87056885 115.01560303 -61.8661377 115.71870605 -61.86157227 116.44311523 C-61.8715898 120.20317551 -62.08247359 123.86308835 -62.51098633 127.59863281 C-63.21108218 135.13853848 -63.06325686 142.66347814 -62.98346901 150.22683525 C-62.95652819 152.92140857 -62.93885258 155.61589642 -62.92399597 158.31056213 C-62.88151669 165.96329885 -62.83315898 173.61586292 -62.75317383 181.26831055 C-62.70470845 185.96883976 -62.67568043 190.66914388 -62.65942955 195.36989021 C-62.6495341 197.15572681 -62.63232709 198.94153854 -62.60764503 200.72723198 C-62.57396113 203.21614275 -62.56501826 205.70400515 -62.56176758 208.19311523 C-62.54581543 208.9282132 -62.52986328 209.66331116 -62.51342773 210.42068481 C-62.53411004 213.88804048 -62.72546946 215.65643577 -64.921875 218.40515137 C-65.60765625 218.93145142 -66.2934375 219.45775146 -67 220 C-67.83567505 220.65560913 -67.83567505 220.65560913 -68.68823242 221.32446289 C-83.47250312 231.5061037 -83.47250312 231.5061037 -91 233 C-91.85980469 233.17917969 -92.71960938 233.35835937 -93.60546875 233.54296875 C-98.16409363 234.15673067 -102.65491114 234.2238544 -107.25 234.25 C-108.58611328 234.2809375 -108.58611328 234.2809375 -109.94921875 234.3125 C-125.00491462 234.39990607 -138.46468647 227.11756185 -149.23046875 216.87109375 C-154.02585013 211.80048077 -156.79017461 206.70164304 -157.10546875 199.63671875 C-156.4511032 183.27758009 -145.81661587 164.98134573 -134 154 C-126.58784024 147.95734788 -119.84689882 144.13623695 -110 145 C-102.92405063 147.07594937 -102.92405063 147.07594937 -101 149 C-99.65797997 131.26463419 -98.79660647 113.60133217 -98.8125 95.8125 C-98.81141235 94.62657257 -98.81141235 94.62657257 -98.81030273 93.41668701 C-98.81054211 91.11754523 -98.81904144 88.81863425 -98.83203125 86.51953125 C-98.83453888 85.79187561 -98.83704651 85.06421997 -98.83963013 84.31451416 C-98.87528208 80.85024317 -99.0214107 77.46459559 -99.44677734 74.02490234 C-100.50569733 65.1175166 -100.50569733 65.1175166 -98.98901367 61.76586914 C-97.46087665 59.87574464 -95.93132117 58.47197434 -94 57 C-93.42540039 56.54560547 -92.85080078 56.09121094 -92.25878906 55.62304688 C-90.42252098 54.25666219 -88.54351755 52.99793779 -86.625 51.75 C-85.1898948 50.79067772 -83.75500458 49.83103376 -82.3203125 48.87109375 C-81.59618164 48.39140137 -80.87205078 47.91170898 -80.12597656 47.41748047 C-77.52374611 45.68246095 -74.9534769 43.904328 -72.38500977 42.11987305 C-69.72088596 40.27213532 -67.04377988 38.44367687 -64.36572266 36.61621094 C-62.66299516 35.45294406 -60.96240366 34.28654839 -59.26318359 33.11816406 C-46.78057784 24.55309316 -34.3184333 16.54370999 -20.70385742 9.89111328 C-18.73415019 8.89927003 -18.73415019 8.89927003 -16 7 C-14.21993478 6.49849556 -12.42616651 6.04444974 -10.625 5.625 C-6.2402357 4.49251121 -3.27044623 3.27044623 0 0 Z M-22.7109375 16.48828125 C-26.76252609 19.16398907 -31.08508957 21.40720185 -35.33984375 23.7421875 C-39.02855071 25.9019389 -42.29824041 28.50829119 -45.64135742 31.16210938 C-49.54537094 34.20417684 -53.61861019 36.99707664 -57.6875 39.8125 C-59.44959348 41.0385241 -61.21131043 42.26508953 -62.97265625 43.4921875 C-63.82746582 44.08741211 -64.68227539 44.68263672 -65.56298828 45.29589844 C-69.49942799 48.04848802 -73.40570914 50.84248541 -77.30615234 53.64575195 C-81.56357979 56.70244881 -85.87035462 59.68200248 -90.20703125 62.625 C-92.12731497 63.88996254 -92.12731497 63.88996254 -93 66 C-92.91281128 68.40391762 -92.76679757 70.7722377 -92.57421875 73.16796875 C-92.00258143 81.22142797 -91.80806159 89.2370684 -91.8125 97.3125 C-91.81210724 98.01124237 -91.81171448 98.70998474 -91.81130981 99.42990112 C-91.81998376 112.65581804 -92.31587789 125.85264342 -92.9375 139.0625 C-92.98097565 139.99373688 -93.02445129 140.92497375 -93.06924438 141.88442993 C-93.19645177 144.55992759 -93.32915313 147.2350764 -93.46484375 149.91015625 C-93.50344513 150.69638367 -93.54204651 151.48261108 -93.58181763 152.29266357 C-93.86164798 157.55787582 -94.37868839 162.76388098 -95 168 C-97.375 167.796875 -97.375 167.796875 -100 167 C-101.1875 164.890625 -101.1875 164.890625 -102 162.25 C-103.62805741 157.75836336 -104.88912926 154.74058049 -109 152 C-114.45165244 150.84074057 -119.23736792 151.89684965 -124.03125 154.6171875 C-136.11977929 163.10794021 -145.3668163 178.28334014 -149.5 192.375 C-150.43288803 199.13843821 -149.66410448 204.2788986 -145.765625 209.9921875 C-138.72388614 217.9998286 -126.70783107 225.83187297 -116 227 C-100.58787613 227.80661231 -88.76275584 226.70039061 -75.6875 217.875 C-74.11548828 216.81925781 -74.11548828 216.81925781 -72.51171875 215.7421875 C-70.16657263 214.22590952 -70.16657263 214.22590952 -69 213 C-68.98208097 211.54351627 -69.03721499 210.08613786 -69.11889648 208.63183594 C-69.19105125 207.15230438 -69.19105125 207.15230438 -69.2646637 205.6428833 C-69.32041061 204.51807556 -69.37615753 203.39326782 -69.43359375 202.234375 C-70.03065709 188.1405608 -70.10220679 174.05828084 -70.09765625 159.953125 C-70.09722383 158.28024162 -70.09722383 158.28024162 -70.09678268 156.57356262 C-70.09328093 149.6470507 -70.08201666 142.72056637 -70.06866455 135.79406738 C-70.05828414 129.8262569 -70.05383596 123.85844198 -70.04882812 117.890625 C-70.03822483 106.26040525 -70.0212441 94.63020486 -70 83 C-68.83626358 82.5403183 -68.83626358 82.5403183 -67.64901733 82.0713501 C-63.16256239 80.25687955 -58.91907203 77.97456787 -54.625 75.75 C-53.70460938 75.28464844 -52.78421875 74.81929687 -51.8359375 74.33984375 C-46.21936426 71.42724934 -41.65004657 68.25856709 -37 64 C-34.71598256 62.10962214 -32.3922113 60.27114739 -30.0625 58.4375 C-29.45712402 57.96078857 -28.85174805 57.48407715 -28.22802734 56.99291992 C-23.97995784 53.68274327 -19.66391537 50.70507092 -15 48 C-9.1512637 53.8487363 -9.94129547 65.64901194 -9.91821289 73.34155273 C-9.93176614 75.70559721 -9.95015144 78.06961754 -9.97265625 80.43359375 C-9.98531222 83.04882676 -9.99767245 85.66406121 -10.00976562 88.27929688 C-10.03330133 92.34664461 -10.06184919 96.41392861 -10.09594727 100.48120117 C-10.2198252 115.78822657 -10.14383175 130.82244069 -8 146 C-10.44384766 145.13134766 -10.44384766 145.13134766 -13 144 C-13.8984375 141.8984375 -13.8984375 141.8984375 -14.375 139.375 C-15.82050591 133.61804295 -18.67605091 129.99053615 -23 126 C-27.95116333 123.52441834 -35.17100325 124.41623877 -40.4609375 125.5078125 C-44.85013955 127.23994971 -46.7263811 129.69660847 -48.8125 133.875 C-53.69131663 146.22038396 -56.4187573 160.13909059 -52 173 C-49.03757103 179.78371339 -44.48487046 183.59516301 -38 187 C-27.94982837 190.87901361 -19.75812809 188.62545652 -10 185 C-6.5803391 183.48015071 -3.29975036 181.76164092 0 180 C2.62078476 178.73079138 5.24420407 177.46745937 7.87109375 176.2109375 C10.12413571 174.9293907 11.42822512 174.06312138 13 172 C14.11727773 162.58178732 12.68396449 152.67176426 11.7578125 143.2734375 C11.62762614 141.9097623 11.4979063 140.54604249 11.36862183 139.18228149 C11.09869414 136.34994383 10.82431654 133.51808681 10.54638672 130.68652344 C10.19383354 127.09262081 9.85092848 123.49787857 9.51117134 119.9027462 C9.24503727 117.09512681 8.9745995 114.28793464 8.70284653 111.48085403 C8.5137749 109.52268849 8.32753524 107.56425014 8.14138794 105.60580444 C7.47631368 98.86925486 6.57754 92.24177588 5.41229248 85.57437134 C4.92100744 82.50676717 4.73034938 79.51151918 4.69140625 76.40625 C4.66836426 75.28420166 4.64532227 74.16215332 4.62158203 73.00610352 C4.59233643 71.27058228 4.59233643 71.27058228 4.5625 69.5 C4.27485486 58.62314994 3.28405163 48.19375403 1.41162109 37.48876953 C0.9581212 34.74678975 0.57617311 32.00067158 0.20703125 29.24609375 C0.07796387 28.28695068 -0.05110352 27.32780762 -0.18408203 26.33959961 C-0.43012702 24.49330979 -0.67220778 22.64648584 -0.90966797 20.79907227 C-1.0232666 19.96819092 -1.13686523 19.13730957 -1.25390625 18.28125 C-1.35002197 17.54970703 -1.4461377 16.81816406 -1.54516602 16.06445312 C-2.04294224 13.8050888 -2.88810758 12.02048363 -4 10 C-10.69583935 10 -17.27665907 12.76479417 -22.7109375 16.48828125 Z " fill="#070B0A" transform="translate(705,520)"/>
</svg>
